<svg version="1.1" xmlns="http://www.w3.org/2000/svg" xmlns:xlink="http://www.w3.org/1999/xlink">
	<svg id="mrf-Icon--options-h" viewBox="0 0 24 24" fill="#fff">
		<path d="M8.157 12.063c0 .562-.204 1.047-.61 1.453-.406.406-.9.61-1.484.61-.563 0-1.047-.204-1.453-.61-.406-.407-.61-.89-.61-1.453 0-.563.203-1.047.61-1.453.406-.407.89-.61 1.453-.61.583 0 1.078.203 1.484.61.406.406.61.89.61 1.453zm5.906 0c0 .562-.204 1.047-.61 1.453-.406.406-.89.61-1.453.61-.562 0-1.047-.204-1.453-.61-.406-.407-.61-.89-.61-1.453 0-.562.204-1.047.61-1.453.406-.407.89-.61 1.453-.61.562 0 1.047.204 1.453.61.406.406.61.89.61 1.453zm5.937 0c0 .562-.203 1.047-.61 1.453-.406.406-.89.61-1.452.61-.584 0-1.08-.204-1.485-.61-.406-.407-.61-.89-.61-1.453 0-.563.204-1.047.61-1.453.406-.407.9-.61 1.485-.61.562 0 1.047.203 1.453.61.407.406.61.89.61 1.453z"/>
	</svg>
</svg>
