<?xml version="1.0" standalone="no"?>
<!DOCTYPE svg PUBLIC "-//W3C//DTD SVG 1.1//EN" "http://www.w3.org/Graphics/SVG/1.1/DTD/svg11.dtd">
<svg xmlns="http://www.w3.org/2000/svg">
<metadata>Generated by Fontastic.me</metadata>
<defs>
<font id="cyto" horiz-adv-x="512">
<font-face font-family="cyto" units-per-em="512" ascent="480" descent="-32"/>
<missing-glyph horiz-adv-x="512" />

<glyph glyph-name="circle" unicode="&#57344;" d="M256 512c-141 0-256-115-256-256 0-141 115-256 256-256 141 0 256 115 256 256 0 141-115 256-256 256z"/>
<glyph glyph-name="circle-empty" unicode="&#57345;" d="M256 512c-141 0-256-115-256-256 0-141 115-256 256-256 141 0 256 115 256 256 0 141-115 256-256 256z m0-461c-113 0-205 92-205 205 0 113 92 205 205 205 113 0 205-92 205-205 0-113-92-205-205-205z"/>
<glyph glyph-name="circle-half" unicode="&#57346;" d="M256 512c-141 0-256-115-256-256 0-141 115-256 256-256 141 0 256 115 256 256 0 141-115 256-256 256z m-1-461l0 410c114 0 205-92 205-205 0-113-91-205-205-205z"/>
<glyph glyph-name="circle-rtl-half" unicode="&#57347;" d="M0 256c0-141 115-256 256-256 141 0 256 115 256 256 0 141-115 256-256 256-141 0-256-115-256-256z m51 0c0 113 92 205 204 205l0-410c-112 0-204 92-204 205z"/>
<glyph glyph-name="heart" unicode="&#57348;" d="M512 349c0 69-60 109-60 109-111 69-196-68-196-68 0 0-85 137-196 68 0 0-60-40-60-109 0 0-21-115 256-314 277 199 256 314 256 314z"/>
<glyph glyph-name="heart-empty" unicode="&#57349;" d="M512 349c0 69-60 109-60 109-111 69-196-68-196-68 0 0-85 137-196 68 0 0-60-40-60-109 0 0-21-115 256-314 277 199 256 314 256 314z m-256-259c-207 149-192 236-192 236 0 51 45 81 45 81 84 52 147-50 147-50 0 0 63 102 147 50 0 0 45-30 45-81 0 0 15-87-192-236z"/>
<glyph glyph-name="heart-half" unicode="&#57350;" d="M512 349c0 69-60 109-60 109-111 69-196-68-196-68 0 0-85 137-196 68 0 0-60-40-60-109 0 0-21-115 256-314 277 199 256 314 256 314z m-254-259l0 267c0 0 63 102 147 50 0 0 45-30 45-81 0 0 15-87-192-236z"/>
<glyph glyph-name="heart-rtl-half" unicode="&#57351;" d="M256 35c277 199 256 314 256 314 0 69-60 109-60 109-111 69-196-68-196-68 0 0-85 137-196 68 0 0-60-40-60-109 0 0-21-115 256-314z m-194 291c0 51 45 81 45 81 84 52 147-50 147-50l0-267c-207 149-192 236-192 236z"/>
<glyph glyph-name="min" unicode="&#57352;" d="M0 512l0-512 512 0 0 512z m410-281l-305 0 0 51 305 0z"/>
<glyph glyph-name="min-2" unicode="&#57353;" d="M256 512c-141 0-256-115-256-256 0-141 115-256 256-256 141 0 256 115 256 256 0 141-115 256-256 256z m128-282l-256 0 0 52 256 0z"/>
<glyph glyph-name="plus" unicode="&#57354;" d="M0 512l0-512 512 0 0 512z m410-281l-127 0 0-128-51 0 0 128-127 0 0 51 127 0 0 128 51 0 0-128 127 0z"/>
<glyph glyph-name="plus-2" unicode="&#57355;" d="M256 512c-141 0-256-115-256-256 0-141 115-256 256-256 141 0 256 115 256 256 0 141-115 256-256 256z m128-282l-102 0 0-102-52 0 0 102-102 0 0 52 102 0 0 102 52 0 0-102 102 0z"/>
<glyph glyph-name="smiley-1" unicode="&#57356;" d="M256 512c-141 0-256-115-256-256 0-141 115-255 256-255 141 0 255 114 255 255 0 141-114 256-255 256z m92-170c19 0 33-14 33-33 0-18-14-32-33-32-18 0-32 14-32 32 0 19 14 33 32 33z m-186 0c18 0 33-14 33-33 0-18-15-32-33-32-18 0-33 14-33 32 0 19 15 33 33 33z m202-246c-23 57-63 105-108 105-44 0-83-46-107-100l-19 23c29 63 74 105 126 105 53 0 99-44 127-111z"/>
<glyph glyph-name="smiley-2" unicode="&#57357;" d="M256 512c-141 0-256-115-256-256 0-141 115-255 256-255 141 0 255 114 255 255 0 141-114 256-255 256z m92-170c19 0 33-14 33-33 0-18-14-32-33-32-18 0-32 14-32 32 0 19 14 33 32 33z m-186 0c18 0 33-14 33-33 0-18-15-32-33-32-18 0-33 14-33 32 0 19 15 33 33 33z m202-220c-23 35-63 57-108 57-44 0-83-21-107-54l-19 14c29 39 74 64 126 64 53 0 99-27 127-67z"/>
<glyph glyph-name="smiley-3" unicode="&#57358;" d="M256 512c-141 0-256-115-256-256 0-141 115-255 256-255 141 0 255 114 255 255 0 141-114 256-255 256z m-127-203c0 19 15 33 33 33 18 0 33-14 33-33 0-18-15-32-33-32-18 0-33 14-33 32z m235-126l-204-34c-1 0-3 2-4 4l-3 17c0 2 1 4 3 4l203 34c2 1 4 0 4-2l3-18c0-2-1-4-2-5z m-16 94c-18 0-32 14-32 32 0 19 14 33 32 33 19 0 33-14 33-33 0-18-14-32-33-32z"/>
<glyph glyph-name="smiley-4" unicode="&#57359;" d="M256 512c-141 0-256-115-256-256 0-141 115-255 256-255 141 0 255 114 255 255 0 141-114 256-255 256z m92-170c19 0 33-14 33-33 0-18-14-32-33-32-18 0-32 14-32 32 0 19 14 33 32 33z m-186 0c18 0 33-14 33-33 0-18-15-32-33-32-18 0-33 14-33 32 0 19 15 33 33 33z m94-220c-52 0-97 25-126 64l19 13c24-32 63-54 107-54 45 0 85 23 108 58l19-14c-28-40-74-67-127-67z"/>
<glyph glyph-name="smiley-5" unicode="&#57360;" d="M256 512c-141 0-256-115-256-256 0-141 115-255 256-255 141 0 255 114 255 255 0 141-114 256-255 256z m-127-202c0 18 14 33 33 33 18 0 32-15 32-33 0-18-14-33-32-33-19 0-33 15-33 33z m129-221c-56 0-102 107-102 111 0 4 46 4 102 4 57 0 103 0 103-4 0-4-46-111-103-111z m90 188c-18 0-33 15-33 33 0 18 15 33 33 33 18 0 33-15 33-33 0-18-15-33-33-33z"/>
<glyph glyph-name="spinner" unicode="&#57361;" d="M256 448c-10 0-17-11-17-24l0-48c0-13 7-24 17-24 9 0 16 11 16 24l0 48c0 13-7 24-16 24z m48-109c8-5 20 1 27 13l24 41c6 12 5 25-3 29-8 5-20-1-27-12l-24-42c-6-11-5-24 3-29z m35-35c5-8 18-9 29-3l42 24c11 7 17 19 12 27-4 8-17 9-29 3l-41-24c-12-7-17-19-13-27z m85-32l-48 0c-13 0-24-7-24-17 0-9 11-16 24-16l48 0c13 0 24 7 24 16 0 10-11 17-24 17z m-14-85l-42 24c-11 6-24 5-29-3-4-8 1-20 13-27l41-24c12-6 25-5 29 3 5 8-1 20-12 27z m-79-27c-7 12-19 17-27 13-8-5-9-18-3-29l24-42c7-11 19-17 27-12 8 4 9 17 3 29z m-75 0c-10 0-17-11-17-24l0-48c0-13 7-24 17-24 9 0 16 11 16 24l0 48c0 13-7 24-16 24z m-48 13c-8 4-20-1-27-13l-24-41c-6-12-5-25 3-29 8-5 20 1 27 12l24 42c6 11 5 24-3 29z m-35 35c-5 8-18 9-29 3l-42-24c-11-7-17-19-12-27 4-8 17-9 29-3l41 24c12 7 18 19 13 27z m-13 47c0 10-11 17-24 17l-48 0c-13 0-24-7-24-17 0-9 11-16 24-16l48 0c13 0 24 7 24 16z m-58 70l42-24c11-6 24-5 29 3 5 8-1 20-13 27l-41 24c-12 6-25 5-29-3-5-8 1-20 12-27z m85 85c-7 11-19 17-27 12-8-4-9-17-3-29l24-41c7-12 19-18 27-13 8 5 9 18 3 29z"/>
<glyph glyph-name="spinner2" unicode="&#57362;" d="M292 88c-86 0-156 75-156 168 0 20-16 36-36 36-20 0-36-16-36-36 0-106 86-192 192-192 105 0 190 84 192 187-2-90-71-163-156-163z m-36 360c-105 0-190-84-192-187 2 90 71 163 156 163 86 0 156-75 156-168 0-20 16-36 36-36 20 0 36 16 36 36 0 106-86 192-192 192z"/>
<glyph glyph-name="spinner3" unicode="&#57363;" d="M167 343c43 43 109 49 159 19-17-17-36-36-36-36-14-16 1-25 9-25l91 0c5 0 9 0 9 0 0 0 4 0 9 0l18 0c5 0 8 4 8 9l0 123c1 11-12 22-25 9 0 0-21-20-36-35-76 55-184 49-252-19-40-39-59-91-57-143l65 0c-2 35 10 71 38 98z m216-76c2-35-10-71-38-98-43-43-109-49-159-19 17 17 36 36 36 36 14 16-1 25-9 25l-91 0c-5 0-9 0-9 0 0 0-4 0-9 0l-18 0c-5 0-9-4-9-9l0-123c0-11 12-22 25-9 0 0 22 20 37 35 76-55 183-49 252 19 40 39 59 91 57 143z"/>
<glyph glyph-name="star" unicode="&#57364;" d="M240 487c9 17 23 17 32 0l53-108c8-17 31-34 50-37l119-17c19-3 24-16 10-30l-86-83c-14-14-23-41-19-60l20-118c3-19-8-28-25-19l-107 56c-17 9-45 9-62 0l-107-56c-17-9-28 0-25 19l20 118c4 19-5 46-19 60l-86 83c-14 14-9 27 10 30l119 17c19 3 42 20 50 37z"/>
<glyph glyph-name="star-empty" unicode="&#57365;" d="M504 295c14 14 9 27-10 30l-119 17c-19 3-42 20-50 37l-53 108c-9 17-23 17-32 0l-53-108c-8-17-31-34-50-37l-119-17c-19-3-24-16-10-30l86-83c14-14 23-41 19-60l-20-118c-3-19 8-28 25-19l107 56c17 9 45 9 62 0l107-56c17-9 28 0 25 19l-20 118c-4 19 5 46 19 60z m-135-71c-9-10-16-28-13-42l14-83c2-13-6-19-18-13l-74 40c-12 6-32 6-44 0l-74-40c-12-6-20 0-18 13l14 83c3 14-4 32-13 42l-61 58c-9 10-6 19 7 21l83 12c14 2 30 14 36 26l37 75c6 13 16 13 22 0l37-75c6-12 22-24 36-26l83-12c13-2 16-11 7-21z"/>
<glyph glyph-name="star-half" unicode="&#57366;" d="M504 295c14 14 9 27-10 30l-119 17c-19 3-42 20-50 37l-53 108c-9 17-23 17-32 0l-53-108c-8-17-31-34-50-37l-119-17c-19-3-24-16-10-30l86-83c14-14 23-41 19-60l-20-118c-3-19 8-28 25-19l107 56c17 9 45 9 62 0l107-56c17-9 28 0 25 19l-20 118c-4 19 5 46 19 60z m-127-72c-10-11-17-31-14-45l15-89c3-14-6-20-19-14l-79 42c-7 4-15 5-23 5l0 317c4 0 8-3 11-10l40-81c6-13 23-25 38-27l89-13c14-2 17-12 7-23z"/>
<glyph glyph-name="star-rtl-half" unicode="&#57367;" d="M94 212c14-14 23-41 19-60l-20-118c-3-19 8-28 25-19l107 56c17 9 45 9 62 0l107-56c17-9 28 0 25 19l-20 118c-4 19 5 46 19 60l86 83c14 14 9 27-10 30l-119 17c-19 3-42 20-50 37l-53 108c-9 17-23 17-32 0l-53-108c-8-17-31-34-50-37l-119-17c-19-3-24-16-10-30z m-24 73c-10 11-7 21 7 23l90 13c14 2 31 14 37 27l40 81c3 7 7 10 11 10l0-317c-8 0-16-1-23-5l-79-42c-13-6-22 0-19 14l15 89c3 14-4 34-14 45z"/>
<glyph glyph-name="thumbs-down" unicode="&#57368;" d="M393 497l98-33 9-200-107 0z m-27-223c0 0-27-11-52-61 0 0-21-41-27-56 0 0-10-22-31-34 0 0-26-23-36-78-1-1-1-3-1-4-6-36-10-39-10-39 0 0-84-23-61 82 0 0 6 32 20 52 0 0 18 39 19 48 0 0 2 10-3 16 0 0-131-9-148 13 0 0-31 25-19 54l12 24c0 0-17 21-17 41 0 0 8 21 22 32 0 0-28 41 14 68 1 0 2 1 3 2 0 0-1 21 7 37 0 0 20 56 173 37 0 0 98-32 135-41l0-193 0 0z"/>
<glyph glyph-name="thumbs-down-2" unicode="&#57369;" d="M152 181c-1 3-11 5-32 8-20 2-42 6-62 13-20 6-29 15-29 27 0 27 11 81 35 162 23 81 43 121 60 121 54 0 110-8 164-24 54-17 82-34 82-51l0-194c0-4-1-8-5-14-3-5-8-12-14-17-7-6-13-12-18-17-6-5-15-11-25-18-10-7-18-13-23-16-5-4-13-10-23-16l-19-13c-20-13-39-32-60-56-20-25-36-46-49-60-13-14-19-19-23-14-18 28-23 56-17 79 7 23 18 46 34 68 17 21 24 31 24 32z m246 3c-5 0-4 2 2 7 18 20 27 39 27 60l0 181c0 19-11 39-30 59-4 4-4 6 1 6 11 0 21-2 31-6 12-2 23-11 35-25 13-15 19-33 19-57l0-136c0-19-4-34-10-47-6-13-15-22-26-27-10-5-19-10-27-11-8-3-15-4-22-4z"/>
<glyph glyph-name="thumbs-up" unicode="&#57370;" d="M119 15l-99 33-8 200 107 0z m27 223c0 0 27 11 51 61 0 0 22 41 27 56 0 0 11 22 31 34 0 0 27 23 37 78 0 1 1 3 1 4 5 36 9 39 9 39 0 0 84 23 62-82 0 0-7-32-21-52 0 0-17-39-18-48 0 0-2-10 2-16 0 0 132 9 148-13 0 0 31-25 20-54l-12-24c0 0 17-21 17-41 0 0-9-21-23-32 0 0 29-41-14-68-1 0-2-1-3-2 0 0 1-21-6-37 0 0-21-56-173-37 0 0-99 32-135 41z"/>
<glyph glyph-name="thumbs-up-2" unicode="&#57371;" d="M359 331c1-2 12-5 33-8 22-2 43-7 62-14 19-6 29-15 29-27 0-27-11-80-34-161-23-81-44-121-62-121-55 0-109 8-164 25-55 15-82 32-82 50l0 195c0 5 3 11 9 19 6 7 14 16 26 25 11 9 21 17 30 23 9 7 21 15 36 25 16 10 25 17 26 18 19 13 38 32 59 56 20 26 37 45 49 59 11 16 19 19 23 16 18-30 24-56 16-79-7-23-18-46-33-68-15-21-23-33-23-33z m-246-2c5 0 5-3 0-8-19-19-28-39-28-59l0-181c0-19 10-38 29-59 4-4 4-5-1-5-10 0-21 1-31 5-10 4-23 12-36 26-13 14-18 30-18 54l0 138c0 23 7 42 19 56 13 15 25 24 36 27 11 3 21 6 30 6z"/>
</font>
</defs>
</svg>
