<svg version="1.1" xmlns="http://www.w3.org/2000/svg" xmlns:xlink="http://www.w3.org/1999/xlink" viewBox="0 0 24 24">
    <path d="M8 2h8l2 3h3q1.24 0 2.12.9T24 8.02v11q0 1.23-.88 2.1T21 22H3q-1.24 0-2.12-.88T0 19V8.02Q0 6.77.88 5.9T3 5h3zm4 6q1.02 0 1.94.4t1.6 1.06 1.06 1.6T17 13t-.4 1.94-1.07 1.6-1.6 1.06T12 18t-1.94-.4-1.6-1.07-1.06-1.6T7 13t.4-1.94 1.06-1.6 1.6-1.06T12 8zm0 2q-1.24 0-2.12.88T9 13t.88 2.12T12 16t2.12-.88T15 13t-.88-2.12T12 10zm4.93-3l-1.96-3h-5.9l-2 3H3q-.4 0-.7.3t-.3.72V19q0 .4.3.7t.7.3h18q.42 0 .7-.28t.3-.7v-11q0-.4-.3-.72T21 7h-4.07z"/>
</svg>