<svg id="Capa_1" data-name="Capa 1" xmlns="http://www.w3.org/2000/svg" viewBox="0 0 272.04 70"><defs><style>.cls-1{fill:#b3340d;}</style></defs><title>logo</title><path class="cls-1" d="M106.41,52.65a11,11,0,0,0,6.14-1.46l-1.06-3.1a9.68,9.68,0,0,1-4.44,1.27c-1.73,0-2.14-1.27-2.14-2.47,3.12.84,7.22-.31,7.22-3.72,0-2.74-2.09-4.39-5.83-4.39-4.18,0-7.13,2.21-7.13,7C99.18,50.78,102.23,52.65,106.41,52.65Zm.53-10.8c.7,0,1.08.36,1.08,1.22,0,2.28-2.11,2.28-3.17,2C104.92,43.41,105.49,41.85,106.93,41.85Zm-3.66,14.43a12,12,0,0,1-9.39-4.68,6.92,6.92,0,0,0,3.26-6c0-5.55-5.46-6.64-10.64-6.73H78.94s.25,7.48.25,10.86c0,4.68-.16,10.73-.16,10.73h7.16c0-2.7,0-4.37-.06-6.67A16.73,16.73,0,0,0,88,53.62a17.12,17.12,0,0,0,15.23,8.25,33.87,33.87,0,0,0,10.69-1.94l-.43-6S108,56.28,103.27,56.28Zm-17.14-6.6c0-1.64-.06-4.19,0-6.27,1.43-.06,4-.25,4,2.64C90.13,49.34,87.53,49.65,86.13,49.68Zm39.11,1.63c-2.08,0-2.85-1.43-2.85-4.09s.78-4.16,2.85-4.16A6.63,6.63,0,0,1,129,44.3l1.43-4.25a10.08,10.08,0,0,0-6.27-1.83c-5.43,0-9.24,2.85-9.24,9,0,6.51,3.94,8.93,9.37,8.93a12.61,12.61,0,0,0,6.64-1.89l-1.49-4.47A7.26,7.26,0,0,1,125.24,51.31Zm21.18-13.09c-3.35,0-5.27,1.46-6.08,3.44.12-4.68.47-12.13.47-12.13s-4.37.19-7.88,0c0,0,.34,8.31.34,13.09,0,6.17-.25,13-.25,13h7.47c-.09-2-.22-5.8-.22-8.38,0-2.23.37-4.37,2.36-4.37s2.54,1.74,2.54,4.37-.12,6.42-.12,8.38h7.51c-.09-2-.22-6.42-.22-11.2C152.35,40.43,150.21,38.22,146.42,38.22Zm28.66.56h-7.51c.09,2,.25,5.8.25,8.37,0,2.23-.25,4.37-2.11,4.37s-2.26-1.71-2.26-4.37.12-6.42.15-8.37h-7.29c.09,2,0,7.72,0,10.67,0,4.4,2.2,6.7,5.77,6.7,3.29,0,4.93-1.46,5.71-3.44l.28,2.89h7.17a27.76,27.76,0,0,1-.34-3.85C174.86,45.57,175.08,38.78,175.08,38.78Zm16.38-.56A5.58,5.58,0,0,0,186,42c0-.47.28-2.67.31-3.26h-7.41s.22,6.79.22,13c0,4.75-.31,13.06-.31,13.06,3.47-.19,7.85,0,7.85,0s-.34-7.41-.43-12.13a5.49,5.49,0,0,0,5.3,3.44c4.62,0,7.66-3.47,7.66-9S196.08,38.22,191.46,38.22Zm-2.61,13.31c-2.33,0-3.1-2.11-3.1-4.37s.78-4.37,3.1-4.37c2.08,0,2.89,1.74,2.89,4.37S190.93,51.53,188.85,51.53Zm42.31.06c-1.58,0-1.71-.81-1.71-2.39,0-.34,0-3.72.09-5.83,2.48,0,4.71,0,4.71,0l.34-4.62h-4.93l0-5.34H227.4L220,41.26l-.09,2.26s.84,0,2.45,0c0,.4,0,1.16,0,2C221,48,218.26,51.9,213.42,51.9c-2.7,0-4.31-1.05-4.31-3.19,4,1.09,9.34-.4,9.34-4.81,0-3.54-2.7-5.68-7.54-5.68-5.4,0-9.21,2.85-9.21,9s4.09,9,10.61,9a13.81,13.81,0,0,0,10.27-4.51c.86,3.13,3.68,4.48,7.07,4.48a10.16,10.16,0,0,0,5.8-1.52l-1.4-4A5.71,5.71,0,0,1,231.15,51.59Zm-19.45-9.37c.9,0,1.4.47,1.4,1.58,0,2.95-2.73,2.95-4.1,2.64C209.1,44.24,209.85,42.22,211.71,42.22ZM272,39.34A11.61,11.61,0,0,0,267,38.22c-9.34,0-9.55,13.68-18.58,13.68-2.7,0-4.31-1.05-4.31-3.19,4,1.09,9.34-.4,9.34-4.81,0-3.54-2.7-5.68-7.54-5.68-5.4,0-9.21,2.85-9.21,9s4.1,9,10.61,9c13,0,13.9-13.65,19.73-13.65a12.44,12.44,0,0,1,4.25,1.09S272.07,39.37,272,39.34Zm-25.34,2.89c.9,0,1.4.47,1.4,1.58,0,2.95-2.73,2.95-4.1,2.64C244.09,44.24,244.83,42.22,246.69,42.22Z"/><path class="cls-1" d="M96.46,23c0-3.77.24-10.33.24-10.33-2.74.15-6.21,0-6.21,0s.29,5.87.37,9.57a4.39,4.39,0,0,0-4.21-2.72c-3.62,0-6,2.76-6,7.1s2.47,7,6.09,7a4.37,4.37,0,0,0,4.28-3c0,.39.07,2.13.07,2.57h5.85a36.27,36.27,0,0,1-.44-5.09C96.46,26.51,96.46,24.7,96.46,23ZM88.77,30c-1.64,0-2.25-1.35-2.25-3.45s.61-3.45,2.25-3.45c1.84,0,2.45,1.69,2.45,3.45S90.61,30,88.77,30Zm22.72-1a9.68,9.68,0,0,1-4.44,1.27c-1.73,0-2.14-1.27-2.14-2.47,3.12.84,7.22-.31,7.22-3.72,0-2.74-2.09-4.39-5.83-4.39-4.18,0-7.13,2.21-7.13,7,0,5,3,6.91,7.22,6.91a11,11,0,0,0,6.14-1.46Zm-4.56-6.24c.7,0,1.08.36,1.08,1.22,0,2.28-2.11,2.28-3.17,2C104.92,24.39,105.49,22.83,106.93,22.83Z"/><path class="cls-1" d="M35,0A35,35,0,1,0,70,35,35,35,0,0,0,35,0ZM45.08,35.85c-.08-2.33.64-4.55,3.63-5.29,2.34-.58,4.34,1.38,5.2,3.9-.15.37-.32.78-.52,1.24A12.59,12.59,0,0,1,51,39.16a10.45,10.45,0,0,0-.6-4.67c-.3-.86-.61-1.21-.81-1.27l-.16,0c-.18.15-.23.72-.29,1.38a22.06,22.06,0,0,1-.65,6.87,11.56,11.56,0,0,1-1.07.79,1.44,1.44,0,0,0-.41.22,16.58,16.58,0,0,1-4.33,2.24A15.62,15.62,0,0,0,45.08,35.85Zm11.94,2C56.63,39.79,52.65,52.5,35.6,52.5S13.3,36.26,13.33,35.57a8.2,8.2,0,0,1-3.7-1c-1.75-1-1.67-2.45.05-1.82,2,.73,5.54,1.4,7.81-2.29.83-1.35,1.94-.8,1.3,1.15A5.71,5.71,0,0,1,16,34.9c5,12.66,26.69,20.34,38.55,2.3,1.89-2.87,1-3.93,2.06-3.93S57.41,35.94,57,37.86Z"/></svg>